# xmcd
#
# Track frame offsets:
# 150
# 16116
# 31703
# 48729
# 63621
# 83341
# 100419
# 117459
# 135068
# 151958
# 170479
# 183155
# 205671
# 221798
#
# Disc length: 3080 seconds
#
#
# Revision: 0
# Processed by: cddbd v1.5.2PL0 Copyright (c) Steve Scherf et al.
# Submitted via: FreeRIP 2.35 
#
DISCID=b00c060e
DTITLE=Wanda Johnson - Natural Resource
DYEAR=2006
DGENRE=Blues
TTITLE0=Natural Resource
TTITLE1=Hot Potato
TTITLE2=Heading North
TTITLE3=Drop in the Bucket
TTITLE4=Lovely on the Water
TTITLE5=It's Good
TTITLE6=Mama's Recipe
TTITLE7=Blue Ain't Nothin' But a Color
TTITLE8=It's So Nice to Have Someone
TTITLE9=Just Tell Me
TTITLE10=Bath Water
TTITLE11=Time to Get Over You
TTITLE12=Enjoy the Ride
TTITLE13=Behind a Cloud
EXTD=
EXTT0=
EXTT1=
EXTT2=
EXTT3=
EXTT4=
EXTT5=
EXTT6=
EXTT7=
EXTT8=
EXTT9=
EXTT10=
EXTT11=
EXTT12=
EXTT13=
PLAYORDER=
